<svg width="268" height="263" viewBox="0 0 268 263" fill="none" xmlns="http://www.w3.org/2000/svg">
<path d="M264.461 164.929L243.766 148.491C244.745 142.913 245.251 137.219 245.251 131.524C245.251 125.829 244.745 120.134 243.766 114.557L264.461 98.1181C266.022 96.8766 267.139 95.2231 267.664 93.3773C268.189 91.5316 268.097 89.5811 267.4 87.7853L267.115 87.022C261.418 72.228 252.886 58.5138 241.933 46.5419L241.364 45.9255C240.036 44.4739 238.265 43.4305 236.285 42.9327C234.305 42.4348 232.209 42.506 230.274 43.1368L204.586 51.6203C195.107 44.399 184.522 38.7042 173.085 34.712L168.124 9.76044C167.75 7.88298 166.769 6.15576 165.313 4.80824C163.857 3.46072 161.994 2.5567 159.972 2.21628L159.119 2.06951C142.657 -0.689836 125.343 -0.689836 108.881 2.06951L108.028 2.21628C106.006 2.5567 104.143 3.46072 102.687 4.80824C101.231 6.15576 100.25 7.88298 99.876 9.76044L94.8838 34.8294C83.5372 38.8224 72.9707 44.5142 63.6034 51.679L37.7261 43.1368C35.7913 42.501 33.6941 42.4273 31.7131 42.9254C29.7322 43.4235 27.9613 44.4699 26.6358 45.9255L26.067 46.5419C15.1267 58.5223 6.59661 72.2342 0.884761 87.022L0.600393 87.7853C-0.82144 91.4546 0.347624 95.5643 3.53885 98.1181L24.4872 114.733C23.5077 120.252 23.0338 125.888 23.0338 131.494C23.0338 137.131 23.5077 142.767 24.4872 148.256L3.53885 164.871C1.97786 166.112 0.860635 167.766 0.335742 169.612C-0.18915 171.457 -0.0968427 173.408 0.600393 175.204L0.884761 175.967C6.60369 190.762 15.0715 204.412 26.067 216.447L26.6358 217.063C27.9645 218.515 29.7355 219.558 31.7152 220.056C33.695 220.554 35.7907 220.483 37.7261 219.852L63.6034 211.31C73.0191 218.502 83.5407 224.197 94.8838 228.16L99.876 253.228C100.25 255.106 101.231 256.833 102.687 258.181C104.143 259.528 106.006 260.432 108.028 260.773L108.881 260.919C125.494 263.694 142.506 263.694 159.119 260.919L159.972 260.773C161.994 260.432 163.857 259.528 165.313 258.181C166.769 256.833 167.75 255.106 168.124 253.228L173.085 228.277C184.518 224.295 195.162 218.582 204.586 211.369L230.274 219.852C232.209 220.488 234.306 220.562 236.287 220.064C238.268 219.565 240.039 218.519 241.364 217.063L241.933 216.447C252.929 204.382 261.396 190.762 267.115 175.967L267.4 175.204C268.821 171.593 267.652 167.483 264.461 164.929V164.929ZM221.332 118.021C222.122 122.453 222.533 127.003 222.533 131.553C222.533 136.103 222.122 140.653 221.332 145.086L219.247 156.857L242.849 175.615C239.271 183.273 234.755 190.522 229.389 197.22L200.068 187.562L190.147 195.135C182.595 200.889 174.191 205.41 165.091 208.58L153.053 212.778L147.397 241.252C138.473 242.191 129.464 242.191 120.54 241.252L114.884 212.719L102.941 208.463C93.9359 205.292 85.5629 200.772 78.0745 195.047L68.1533 187.445L38.6424 197.19C33.271 190.468 28.7843 183.217 25.1823 175.585L49.0375 156.651L46.9838 144.91C46.2255 140.536 45.8147 136.015 45.8147 131.553C45.8147 127.062 46.1939 122.571 46.9838 118.197L49.0375 106.455L25.1823 87.5211C28.7527 79.8595 33.271 72.6382 38.6424 65.916L68.1533 75.6618L78.0745 68.0589C85.5629 62.3347 93.9359 57.8141 102.941 54.6438L114.916 50.4461L120.572 21.9133C129.45 20.9739 138.518 20.9739 147.428 21.9133L153.084 50.3874L165.122 54.5851C174.191 57.7554 182.627 62.276 190.178 68.0296L200.099 75.6031L229.421 65.9454C234.792 72.6676 239.279 79.9182 242.881 87.5504L219.278 106.308L221.332 118.021ZM134.032 76.9534C103.32 76.9534 78.4221 100.085 78.4221 128.618C78.4221 157.15 103.32 180.282 134.032 180.282C164.743 180.282 189.641 157.15 189.641 128.618C189.641 100.085 164.743 76.9534 134.032 76.9534ZM159.056 151.867C155.774 154.925 151.873 157.35 147.579 159.002C143.284 160.655 138.68 161.502 134.032 161.495C124.584 161.495 115.706 158.06 109.007 151.867C105.716 148.817 103.106 145.193 101.327 141.203C99.5484 137.214 98.6365 132.936 98.6437 128.618C98.6437 119.841 102.341 111.592 109.007 105.369C115.706 99.1455 124.584 95.7404 134.032 95.7404C143.479 95.7404 152.357 99.1455 159.056 105.369C162.347 108.418 164.958 112.042 166.736 116.032C168.515 120.022 169.427 124.299 169.419 128.618C169.419 137.395 165.723 145.643 159.056 151.867Z" fill="#07293B"/>
</svg>
