<svg width="61" height="70" viewBox="0 0 61 70" fill="none" xmlns="http://www.w3.org/2000/svg">
<path d="M41.19 22.8362C47.7303 31.5177 46.0241 43.8794 37.209 50.3905C28.4886 56.9017 16.0715 55.1088 9.53124 46.4272C2.99096 37.7457 4.69712 25.384 13.5123 18.8729C22.2327 12.3617 34.6497 14.1546 41.19 22.8362Z" fill="#FFE177"/>
<path d="M6.21374 18.9672C4.69716 20.0996 2.61185 19.8165 1.47441 18.3067C0.336966 16.7968 0.621326 14.7208 2.13791 13.5884C3.6545 12.4561 5.73981 12.7392 6.87725 14.249C8.01469 15.7588 7.73033 17.8348 6.21374 18.9672ZM3.46493 15.287C2.89621 15.6645 2.80142 16.4194 3.27535 16.9856C3.6545 17.5517 4.50758 17.6461 4.98152 17.2686C5.55024 16.8912 5.64502 16.0419 5.26588 15.5701C4.79194 15.0039 4.03365 14.9095 3.46493 15.287Z" fill="#07293B"/>
<path d="M8.10948 59.4495C7.91991 59.6383 7.63555 59.7326 7.35119 59.6383C6.78247 59.5439 6.40332 58.9777 6.40332 58.4115L7.16161 53.1271C7.2564 52.5609 7.82512 52.1835 8.39384 52.1835C8.96256 52.2778 9.34171 52.844 9.34171 53.4102L8.58342 58.6946C8.48863 59.0721 8.29906 59.2608 8.10948 59.4495Z" fill="#07293B"/>
<path d="M11.1426 57.1848C10.9531 57.3735 10.6687 57.4679 10.3843 57.3735L5.07629 56.6186C4.50756 56.5243 4.12842 55.9581 4.12842 55.3919C4.2232 54.8257 4.79192 54.4482 5.36065 54.4482L10.6687 55.2032C11.2374 55.2975 11.6166 55.8637 11.6166 56.4299C11.5218 56.8073 11.3322 56.9961 11.1426 57.1848Z" fill="#07293B"/>
<path d="M58.7255 51.7117C57.2089 52.844 55.1236 52.5609 53.9861 51.0511C52.8487 49.5413 53.133 47.4653 54.6496 46.3329C56.1662 45.2005 58.2515 45.4836 59.389 46.9934C60.5264 48.5033 60.2421 50.6736 58.7255 51.7117ZM55.9766 48.1258C55.4079 48.5033 55.3131 49.3525 55.6923 49.8244C56.0714 50.3906 56.9245 50.4849 57.3985 50.1075C57.9672 49.73 58.062 48.8807 57.6828 48.4089C57.3037 47.7483 56.5454 47.654 55.9766 48.1258Z" fill="#07293B"/>
<path d="M2.99078 60.4875C3.5595 61.2425 3.36992 62.2805 2.70642 62.7523C1.94812 63.4128 0.90547 63.2241 0.336749 62.4692C-0.231971 61.7143 -0.0423975 60.6763 0.62111 60.2044C1.47419 59.6383 2.51684 59.827 2.99078 60.4875Z" fill="#07293B"/>
<path d="M14.1758 15.287C14.9341 16.3251 14.3654 17.9292 12.6592 17.9292C11.0478 17.4574 10.8583 15.6645 11.9009 14.9096C12.5644 14.3434 13.6071 14.5321 14.1758 15.287Z" fill="#07293B"/>
<path d="M53.986 28.0262C53.7964 28.2149 53.512 28.3093 53.2277 28.2149C52.6589 28.1206 52.2798 27.5544 52.2798 26.9882L53.0381 21.7038C53.1329 21.1376 53.7016 20.7601 54.2703 20.7601C54.839 20.8545 55.2182 21.4207 55.2182 21.9869L54.4599 27.3656C54.3651 27.6487 54.2703 27.9318 53.986 28.0262Z" fill="#07293B"/>
<path d="M57.0191 25.7615C56.8295 25.9502 56.5452 26.0446 56.2608 25.9502L50.9527 25.1953C50.384 25.1009 50.0049 24.5347 50.0049 23.9685C50.0997 23.4024 50.6684 23.0249 51.2371 23.0249L56.5452 23.7798C57.1139 23.8742 57.493 24.4404 57.493 25.0066C57.3982 25.384 57.3035 25.6671 57.0191 25.7615Z" fill="#07293B"/>
<path d="M11.4269 7.17169C11.2373 7.36042 10.9529 7.45478 10.6686 7.36042C10.0998 7.26605 9.7207 6.69987 9.7207 6.13368L10.479 0.943643C10.5738 0.377457 11.1425 0 11.7112 0C12.2799 0.0943643 12.6591 0.66055 12.6591 1.22674L11.9008 6.51114C11.806 6.79423 11.6164 6.98296 11.4269 7.17169Z" fill="#07293B"/>
<path d="M14.46 4.90698C14.2704 5.0957 13.9861 5.19007 13.7017 5.0957L8.39367 4.34079C7.82495 4.24643 7.4458 3.68024 7.4458 3.11405C7.54059 2.54787 8.10931 2.17041 8.67803 2.17041L13.9861 2.92532C14.5548 3.01969 14.934 3.58588 14.934 4.15206C14.8392 4.52952 14.6496 4.71825 14.46 4.90698Z" fill="#07293B"/>
<path d="M30.488 56.4495L24.9904 53.2411L28.5923 52.4862L30.8672 56.0721L30.488 56.4495ZM35.9856 60.2241C35.7013 61.2621 34.7534 61.9227 33.7108 61.9227C33.5212 61.9227 33.3316 61.9226 33.2368 61.8283C32.0046 61.5452 31.1515 60.4128 31.3411 59.1861C31.5307 57.9593 32.6681 57.0157 33.9003 57.1101C35.1326 57.2044 36.1752 58.2424 36.1752 59.4692C35.9856 59.7523 35.9856 60.0354 35.9856 60.2241ZM37.9762 50.5046V47.9567L35.9856 48.5229V51.1651C35.9856 51.5426 36.1752 51.92 36.5544 52.0144L36.9335 52.2031L34.469 55.3171H34.2795C33.8055 55.2228 33.4264 55.2228 32.9525 55.3171H32.7629L30.2984 52.2031L30.6776 52.0144C31.0567 51.8257 31.2463 51.5426 31.2463 51.1651V48.5229L29.2558 47.9567V50.5989L19.4927 52.4862L18.7345 52.6749C15.8909 53.3355 13.9951 55.6946 13.9951 58.6199V68.0563C13.9951 68.6225 14.4691 69 14.943 69C15.5117 69 15.8909 68.5282 15.8909 68.0563V58.6199C15.8909 56.7326 17.2179 55.0341 19.1136 54.6566L22.5259 53.9017L29.4454 58.2424V58.3368C29.3506 58.7143 29.2558 59.1861 29.2558 59.5635C29.2558 59.6579 29.2558 59.7523 29.2558 59.7523V59.941L29.161 60.0354C27.4548 61.2621 25.2747 63.6212 24.2321 67.7732C24.1373 68.3394 24.4217 68.8113 24.9904 69C25.5591 69.0943 26.033 68.8112 26.2226 68.2451C26.8861 65.6972 28.0236 63.6212 29.8245 62.1114L30.0141 61.9227L30.2036 62.2057C30.2984 62.3001 30.2984 62.3001 30.3932 62.3945L30.488 62.4888L30.3932 62.6776C29.3506 64.8479 29.3506 67.6789 29.3506 68.0563C29.3506 68.6225 29.8245 69 30.2984 69C30.7724 69 31.2463 68.5282 31.2463 68.0563C31.2463 67.3958 31.3411 65.4141 31.9098 63.9043L32.0046 63.6212L32.289 63.7156C33.142 63.9987 34.0899 63.9987 34.943 63.7156L35.2273 63.6212L35.3221 63.9043C35.8908 65.3198 35.9856 67.2071 35.9856 68.0563C35.9856 68.3394 36.0804 68.5282 36.27 68.7169C36.4596 68.9056 36.7439 69 36.9335 69C37.2179 69 37.4074 68.9056 37.597 68.7169C37.7866 68.5282 37.8814 68.2451 37.8814 68.0563C37.8814 67.7732 37.8814 64.8479 36.8387 62.6776L36.7439 62.4888L36.8387 62.3945C36.9335 62.3001 36.9335 62.3001 37.0283 62.2057L37.2179 61.9227L37.4074 62.1114C39.1136 63.6212 40.3458 65.6972 41.0093 68.2451C41.1041 68.8112 41.6728 69.0943 42.2416 69C42.5259 68.9056 42.7155 68.8113 42.8103 68.5282C42.9051 68.3394 42.9999 68.0563 42.9051 67.7732C41.8624 63.6212 39.6823 61.2621 37.9762 60.0354L37.8814 59.941V59.7523C37.8814 59.6579 37.8814 59.5635 37.8814 59.5635C37.8814 59.1861 37.7866 58.7143 37.6918 58.3368L37.597 58.1481L44.5164 53.8073L47.9288 54.5622C49.8245 54.9397 51.1515 56.6382 51.1515 58.5255V67.962C51.1515 68.5282 51.6254 68.9056 52.0994 68.9056C52.6681 68.9056 53.0472 68.4338 53.0472 67.962V58.5255C53.0472 57.1101 52.5733 55.789 51.7202 54.751C50.8672 53.713 49.6349 52.958 48.3079 52.6749L46.8861 52.3919L37.9762 50.5046ZM36.7439 56.4495L36.5544 56.2608L36.3648 56.0721L36.5544 55.789L39.0188 52.3919L42.9051 53.3355L36.7439 56.4495Z" fill="#07293B"/>
<path d="M52.2888 67.0184H14.9429V69H52.2888V67.0184Z" fill="#07293B"/>
<path d="M28.9712 35.595C28.4973 35.595 28.2129 35.9725 28.2129 36.3499V38.5203C28.2129 38.9921 28.592 39.2752 28.9712 39.2752C29.4451 39.2752 29.7295 38.8978 29.7295 38.5203V36.3499C29.7295 35.9725 29.3503 35.595 28.9712 35.595Z" fill="#07293B" stroke="#07293B" stroke-width="0.5669" stroke-miterlimit="10"/>
<path d="M38.5449 35.595C38.071 35.595 37.7866 35.9725 37.7866 36.3499V38.5203C37.7866 38.9921 38.1658 39.2752 38.5449 39.2752C39.0189 39.2752 39.3032 38.8978 39.3032 38.5203V36.3499C39.3032 35.9725 39.0189 35.595 38.5449 35.595Z" fill="#07293B" stroke="#07293B" stroke-width="0.5669" stroke-miterlimit="10"/>
<path d="M36.175 41.8231C35.7959 41.6343 35.322 41.8231 35.1324 42.2949C35.1324 42.2949 34.848 42.9554 33.7106 42.9554C32.5732 42.9554 32.2888 42.2949 32.2888 42.2949C32.0992 41.9174 31.6253 41.7287 31.2461 41.8231C30.867 42.0118 30.6774 42.4836 30.7722 42.8611C31.0566 43.4272 31.9096 44.4653 33.7106 44.4653C35.4168 44.4653 36.3646 43.4272 36.649 42.8611C36.8386 42.4836 36.649 42.0118 36.175 41.8231Z" fill="#07293B" stroke="#07293B" stroke-width="0.5669" stroke-miterlimit="10"/>
<path d="M47.8338 32.6697L47.2651 32.8584C47.0755 33.8021 46.886 34.8401 46.5068 35.8781C45.9381 35.4063 45.1798 35.1232 44.4215 35.0288V33.4246H44.2319C43.758 33.519 43.2841 33.6133 42.8101 33.7077V39.747C42.8101 44.7483 38.7343 48.806 33.7106 48.806C28.6869 48.806 24.6111 44.7483 24.6111 39.747V33.8021C24.1372 33.7077 23.6632 33.6133 23.1893 33.519C23.1893 33.519 23.0945 33.519 22.9997 33.519V35.1232C22.431 35.2175 21.8623 35.4063 21.3883 35.595C20.9144 34.9344 20.4405 33.9908 19.9665 32.8584C19.6822 32.7641 19.4926 32.7641 19.4926 32.7641L18.5447 32.481C18.3552 32.481 18.1656 32.3866 18.0708 32.3866C18.6395 34.1795 19.303 35.6893 20.1561 36.633C19.5874 37.2935 19.303 38.2372 19.303 39.1808C19.303 41.4456 21.104 43.2385 23.3789 43.2385H23.4736C24.3267 45.692 26.6964 48.2398 28.213 49.0891C29.7296 49.9384 30.9618 50.2215 33.6158 50.2215C36.4594 50.2215 37.6917 49.7496 39.0187 49.0891C40.63 48.2398 42.9997 45.692 43.758 43.2385H43.8528C46.1277 43.2385 47.9286 41.4456 47.9286 39.1808C47.9286 38.5203 47.739 37.9541 47.5495 37.3879C48.1182 35.595 48.4973 33.9908 48.6869 32.481H48.5921L47.8338 32.6697ZM20.9144 39.0865C20.9144 37.8597 21.7675 36.8217 22.9997 36.633V39.747C22.9997 40.4076 23.0945 40.9738 23.1893 41.5399C21.9571 41.4456 20.9144 40.3132 20.9144 39.0865ZM44.3267 41.5399C44.4215 40.9738 44.5163 40.3132 44.5163 39.747V36.633C45.6537 36.8217 46.6016 37.8597 46.6016 39.0865C46.5068 40.3132 45.5589 41.4456 44.3267 41.5399Z" fill="#07293B" stroke="#07293B" stroke-width="0.5669" stroke-miterlimit="10"/>
<path d="M52.668 29.7444L46.6017 28.2346V23.8938C46.6017 22.1009 45.8434 20.4967 44.5164 19.3643C43.1894 18.232 41.3884 17.8545 39.6823 17.9489H27.8339C26.033 17.8545 24.3268 18.232 22.9998 19.3643C21.6728 20.4967 20.9145 22.1953 20.9145 23.8938V28.2346L14.8481 29.7444C14.469 29.8388 14.0898 30.2162 14.0898 30.6881C14.0898 31.1599 14.3742 31.5373 14.7534 31.6317C14.9429 31.7261 16.4595 32.1979 18.7344 32.7641L19.6823 33.0472C19.6823 33.0472 22.6207 33.7077 23.1894 33.8965C24.232 34.0852 25.2747 34.2739 26.3173 34.4626C26.3173 34.4626 27.8339 34.6514 27.9287 34.6514C29.7297 34.8401 31.1515 35.0288 32.4785 35.0288H34.8481C36.5543 34.9345 38.3552 34.7457 39.4927 34.557L40.3458 34.4626L41.1041 34.3683C42.1467 34.1795 43.1894 33.9908 44.232 33.8021L44.6112 33.7077L47.8339 32.9528L48.7818 32.6697C51.1515 32.0092 52.668 31.5373 52.7628 31.5373C53.142 31.443 53.4263 30.9712 53.4263 30.5937C53.4263 30.2162 53.0472 29.8388 52.668 29.7444ZM22.8102 23.6107C22.8102 22.384 23.2842 21.346 24.232 20.4967C25.0851 19.7418 26.2225 19.5531 27.4548 19.5531H39.9666C41.1989 19.5531 42.3363 19.7418 43.2842 20.4967C44.1372 21.2516 44.706 22.384 44.706 23.6107V27.6684H22.905V23.6107H22.8102ZM33.7107 32.7641C28.9714 32.7641 18.7344 31.2543 18.8292 30.405C18.8292 30.1219 20.5353 29.6501 22.0519 29.6501C23.5685 29.6501 44.4216 29.6501 45.559 29.6501C46.7913 29.6501 48.687 30.1219 48.687 30.405C48.687 31.7261 38.5448 32.7641 33.7107 32.7641Z" fill="#07293B"/>
</svg>
