<svg width="60" height="76" viewBox="0 0 60 76" fill="none" xmlns="http://www.w3.org/2000/svg">
<path d="M53.3535 20.7435C56.587 28.9694 52.5451 38.1788 44.3714 41.3976C36.1079 44.6165 26.8564 40.5929 23.6229 32.4565C20.3894 24.2306 24.4313 15.0212 32.6049 11.8024C40.7786 8.49412 50.0301 12.5176 53.3535 20.7435Z" fill="#FFE177"/>
<path d="M7.45512 50.2494C7.72458 50.9647 7.3653 51.68 6.73656 51.9482C6.018 52.2164 5.29943 51.8588 5.02997 51.2329C4.76051 50.5176 5.11979 49.8023 5.74853 49.5341C6.37728 49.2659 7.18566 49.5341 7.45512 50.2494Z" fill="#07293B"/>
<path d="M38.6226 6.61647C38.9819 7.59999 38.1735 8.76235 36.8262 8.4047C35.6585 7.68941 35.928 6.25882 36.916 5.90117C37.5447 5.54352 38.3531 5.90117 38.6226 6.61647Z" fill="#07293B"/>
<path d="M21.1079 16.2729C20.9282 16.3623 20.7486 16.3623 20.6588 16.2729C20.2995 16.0941 20.2097 15.7365 20.2995 15.4682L21.557 12.5176C21.7366 12.16 22.0959 12.0706 22.3654 12.16C22.7246 12.3388 22.8145 12.6965 22.7246 12.9647L21.4671 15.9153C21.3773 16.0941 21.1977 16.1835 21.1079 16.2729Z" fill="#07293B"/>
<path d="M23.1735 15.3788C22.9939 15.4682 22.8142 15.4682 22.7244 15.3788L19.7603 14.127C19.401 13.9482 19.3112 13.5906 19.401 13.3223C19.5807 12.9647 19.94 12.8753 20.2094 12.9647L23.1735 14.2164C23.5328 14.3953 23.6226 14.7529 23.5328 15.0212C23.443 15.2 23.3531 15.3788 23.1735 15.3788Z" fill="#07293B"/>
<path d="M56.5866 44.1694C56.407 44.2588 56.1375 44.2588 55.9579 44.1694C55.5088 43.9906 55.3291 43.4541 55.5088 43.0071L57.2154 39.073C57.395 38.6259 57.9339 38.4471 58.383 38.6259C58.8321 38.8047 59.0118 39.3412 58.8321 39.7883L57.1255 43.7224C57.0357 43.9012 56.8561 44.08 56.5866 44.1694Z" fill="#07293B"/>
<path d="M59.4611 43.0071C59.2814 43.0965 59.012 43.0965 58.8323 43.0071L54.7904 41.3082C54.3413 41.1294 54.1617 40.593 54.3413 40.1459C54.5209 39.6988 55.0599 39.52 55.509 39.6988L59.4611 41.3977C59.9102 41.5765 60.0898 42.113 59.9102 42.56C59.8203 42.8282 59.6407 42.9177 59.4611 43.0071Z" fill="#07293B"/>
<path d="M3.05389 14.5741C1.34731 14.5741 0 13.233 0 11.5341C0 9.83532 1.34731 8.49414 3.05389 8.49414C4.76048 8.49414 6.10778 9.83532 6.10778 11.5341C6.10778 13.233 4.76048 14.5741 3.05389 14.5741ZM3.05389 10.193C2.33533 10.193 1.70659 10.8188 1.70659 11.5341C1.70659 12.2494 2.33533 12.8753 3.05389 12.8753C3.77245 12.8753 4.49102 12.2494 4.49102 11.5341C4.49102 10.7294 3.86228 10.193 3.05389 10.193Z" fill="#07293B"/>
<path d="M8.26336 75.9999C6.55678 75.9999 5.20947 74.6588 5.20947 72.9599C5.20947 71.2611 6.55678 69.9199 8.26336 69.9199C9.96995 69.9199 11.3173 71.2611 11.3173 72.9599C11.4071 74.6588 9.96995 75.9999 8.26336 75.9999ZM8.26336 71.6187C7.5448 71.6187 6.91606 72.2446 6.91606 72.9599C6.91606 73.6752 7.5448 74.3011 8.26336 74.3011C8.98193 74.3011 9.61067 73.6752 9.61067 72.9599C9.61067 72.1552 8.98193 71.6187 8.26336 71.6187Z" fill="#07293B"/>
<path d="M24.7004 47.6565C24.6106 47.4777 24.4309 47.2989 24.2513 47.3883L22.1854 47.9248C22.0058 48.0142 21.8262 48.193 21.916 48.3718C22.0058 48.5506 22.1854 48.7295 22.3651 48.64L24.431 48.1036C24.6106 48.1036 24.7004 47.8353 24.7004 47.6565Z" fill="#07293B"/>
<path d="M30.5389 46.4941L32.6048 45.9576C32.7844 45.8682 32.9641 45.6894 32.8742 45.5106C32.7844 45.3318 32.6048 45.1529 32.4251 45.2423L30.3593 45.7788C30.1796 45.8682 30 46.0471 30.0898 46.2259C30.1796 46.4047 30.3593 46.5835 30.5389 46.4941Z" fill="#07293B"/>
<path d="M28.6523 46.5835C28.5624 46.4047 28.3828 46.2259 28.2032 46.3153L26.8559 46.6729C26.6762 46.7623 26.4966 46.9412 26.5864 47.12C26.6762 47.2988 26.8559 47.4776 27.0355 47.3882L28.3828 47.0306C28.5624 47.0306 28.7421 46.8518 28.6523 46.5835Z" fill="#07293B"/>
<path d="M35.479 44.4377L34.1317 44.7953C33.9521 44.8847 33.7724 45.0636 33.8623 45.2424C33.9521 45.4212 34.1317 45.6 34.3114 45.5106L35.6587 45.153C35.8383 45.0636 36.018 44.8847 35.9281 44.7059C35.8383 44.5271 35.6587 44.4377 35.479 44.4377Z" fill="#07293B"/>
<path d="M39.7002 43.3647L38.3529 43.7224C38.1733 43.8118 37.9936 43.9906 38.0835 44.1694C38.1733 44.3482 38.3529 44.5271 38.5326 44.4377L39.8799 44.08C40.0595 43.9906 40.2391 43.8118 40.1493 43.6329C40.1493 43.3647 39.8799 43.2753 39.7002 43.3647Z" fill="#07293B"/>
<path d="M26.5868 48.4612L24.5209 48.9977C24.3412 49.0871 24.1616 49.2659 24.2514 49.4447C24.3413 49.6235 24.5209 49.8024 24.7005 49.7129L26.7664 49.1765C26.946 49.0871 27.1257 48.9082 27.0359 48.7294C26.946 48.5506 26.7664 48.4612 26.5868 48.4612Z" fill="#07293B"/>
<path d="M34.7601 46.3153L32.6942 46.8518C32.5146 46.9412 32.3349 47.12 32.4248 47.2988C32.5146 47.4777 32.6942 47.6565 32.8739 47.5671L34.9397 47.0306C35.1194 46.9412 35.299 46.7624 35.2092 46.5835C35.1194 46.4047 34.9397 46.3153 34.7601 46.3153Z" fill="#07293B"/>
<path d="M30.4488 47.4776L29.1015 47.8353C28.9218 47.9247 28.7422 48.1035 28.832 48.2823C28.9218 48.4612 29.1015 48.64 29.2811 48.5506L30.6284 48.1929C30.808 48.1035 30.9877 47.9247 30.8979 47.7459C30.808 47.5671 30.7182 47.3882 30.4488 47.4776Z" fill="#07293B"/>
<path d="M38.2632 45.4212L36.9159 45.7788C36.7363 45.8682 36.5566 46.0471 36.6464 46.2259C36.7363 46.4047 36.9159 46.5835 37.0956 46.4941L38.4429 46.1365C38.6225 46.0471 38.8021 45.8682 38.7123 45.6894C38.6225 45.5106 38.4429 45.3318 38.2632 45.4212Z" fill="#07293B"/>
<path d="M42.1257 40.8612L39.3413 41.5765L38.982 40.3247L41.4072 39.6989C41.5868 39.6094 41.7664 39.52 41.7664 39.3412C41.8563 39.1624 41.7664 38.9836 41.5868 38.8047L39.7904 37.0165C39.7904 37.0165 39.7904 37.0165 39.7006 36.9271L39.5209 36.7483C39.7006 36.6588 39.7904 36.5694 39.7904 36.3906C39.8802 36.2118 39.7904 36.033 39.6107 35.8541L37.9042 34.0659C38.0838 33.9765 38.1736 33.8871 38.1736 33.7083C38.2634 33.5294 38.1736 33.3506 37.994 33.1718L35.479 30.6683C35.2994 30.4894 35.1197 30.4894 34.9401 30.4894C34.7604 30.4894 34.5808 30.6683 34.5808 30.8471L34.3113 32.0094L33.5928 31.2941H33.6826C33.8622 31.2047 34.0419 31.1153 34.0419 30.9365C34.1317 30.7577 34.0419 30.5789 33.8622 30.4L30.6287 27.1812C30.4491 27.0024 30.2694 27.0024 30.0898 27.0024C29.9101 27.0918 29.7305 27.1812 29.7305 27.36L28.7425 31.92C28.6527 32.0989 28.7425 32.2777 28.8323 32.4565C28.9221 32.5459 29.1916 32.6353 29.3712 32.5459H29.461L29.3712 33.0824L27.3054 31.0259L28.2036 27.8071C28.2934 27.6283 28.1137 27.36 27.9341 27.36C27.7545 27.2706 27.485 27.4494 27.485 27.6283L26.6766 30.4L24.6107 28.3436C24.4311 28.1647 24.2515 28.1647 24.0718 28.3436C23.8922 28.5224 23.8922 28.7012 24.0718 28.88L26.4071 31.2941L24.2515 39.073L22.9042 37.553C23.0838 37.4636 23.1736 37.3741 23.2634 37.1953C23.3533 37.0165 23.2634 36.8377 23.0838 36.6589L20.479 33.9765C20.2994 33.7977 20.1197 33.7977 19.9401 33.7977C19.7604 33.8871 19.5808 33.9765 19.5808 34.1553L18.5928 37.7318C18.503 37.9106 18.5928 38.0894 18.6826 38.2683C18.7724 38.3577 18.9521 38.4471 19.1317 38.4471L18.4131 40.9506C18.3233 41.1294 18.4131 41.3083 18.503 41.4871C18.5928 41.5765 18.7724 41.6659 18.9521 41.6659L18.2335 44.7059C18.1437 44.8847 18.2335 45.0636 18.3233 45.2424C18.4131 45.3318 18.6826 45.4212 18.8622 45.3318L21.5568 44.6165L21.9161 46.0471L18.8622 46.9412C18.6826 47.0306 18.503 47.2094 18.5928 47.3883C18.6826 47.5671 18.8622 47.7459 19.0419 47.6565L42.3952 41.5765C42.5748 41.4871 42.7545 41.3083 42.6646 41.1294C42.5748 40.9506 42.3952 40.7718 42.1257 40.8612ZM36.467 40.2353L34.8503 38.6259L35.0299 37.9106L38.6227 36.9271L39.2515 37.6424C39.2515 37.6424 39.2515 37.6424 39.3413 37.7318L40.6886 39.1624L36.467 40.2353ZM38.8922 36.1224L34.5808 37.2847L35.2095 34.8706L37.0958 34.3341L38.8922 36.1224ZM33.6826 37.3741L31.976 35.6753L34.3113 35.0494L33.6826 37.3741ZM35.3892 31.5624L37.3652 33.5294L34.6706 34.2447L35.3892 31.5624ZM30.5389 28.0753L33.2335 30.7577L32.5149 30.9365H32.4251L29.461 31.7412L30.5389 28.0753ZM30.3592 32.3671L32.6946 31.7412H32.7844H32.8742L34.2215 33.0824L33.8622 34.513L31.4371 35.1388L30 33.7083L30.3592 32.3671ZM20.2095 34.8706L22.2754 36.9271L19.4012 37.6424L20.2095 34.8706ZM20.0299 38.2683L22.0958 37.7318L23.982 39.6094L23.2634 39.7883L22.994 39.8777L19.4012 40.7718L20.0299 38.2683ZM19.0419 44.5271L19.8503 41.4871L22.994 40.6824L23.2634 40.593L23.6227 40.5036L23.8024 40.6824L22.994 43.4541L19.0419 44.5271ZM22.5449 45.5106L22.2754 44.5271L22.9042 44.3483L22.5449 45.5106ZM31.1676 43.7224L27.485 44.7059C27.8443 43.9906 28.2036 43.0071 28.473 41.5765C28.7425 40.4141 28.8323 39.3412 28.9221 38.7153C29.2814 39.1624 29.7305 39.7883 30.2694 40.4141L31.1676 43.7224ZM31.8862 43.5436L31.4371 41.7553C32.0658 42.3812 32.6946 42.9177 33.2335 43.2753L31.8862 43.5436ZM34.3113 42.9177C33.8622 42.8283 32.8742 42.2918 31.3473 40.5036C30.0898 39.073 29.1018 37.6424 29.1018 37.6424C28.9221 37.3741 28.6527 37.3741 28.5628 37.3741C28.473 37.3741 28.2036 37.4636 28.2036 37.8212C28.2036 37.8212 28.0239 39.6094 27.6646 41.3977C27.2155 43.7224 26.5868 44.6165 26.2275 44.9741L23.2634 45.7789L27.0359 31.8306L37.2754 42.113L34.3113 42.9177ZM38.6227 41.7553L38.1736 41.8447L37.6347 41.3083L37.4551 40.6824L38.2634 40.5036L38.6227 41.7553Z" fill="#07293B"/>
<path d="M19.7602 30.8471C20.8516 30.8471 21.7363 29.9664 21.7363 28.88C21.7363 27.7936 20.8516 26.913 19.7602 26.913C18.6689 26.913 17.7842 27.7936 17.7842 28.88C17.7842 29.9664 18.6689 30.8471 19.7602 30.8471Z" stroke="#07293B" stroke-miterlimit="10"/>
<path d="M51.0179 57.313L18.5029 65.8071C16.5269 66.3436 14.5508 65.1812 14.0119 63.2141L5.02985 29.2377C4.49093 27.2706 5.6586 25.3036 7.63464 24.7671L40.1496 16.273C42.1257 15.7365 44.1017 16.8989 44.6406 18.8659L53.6227 52.8424C54.0718 54.8094 52.9041 56.7765 51.0179 57.313ZM7.99392 26.0189C6.73644 26.3765 6.01788 27.6283 6.28734 28.88L15.2694 62.8565C15.6287 64.1083 16.8861 64.8236 18.1436 64.5553L50.6586 56.0612C51.9161 55.7036 52.6346 54.4518 52.3652 53.2L43.3831 19.2236C43.0239 17.9718 41.7664 17.2565 40.5089 17.5247L7.99392 26.0189Z" fill="#07293B"/>
<path d="M49.7604 56.9553L19.3113 64.9129C17.1556 65.4494 14.9101 64.1977 14.2813 62.0518L12.7544 56.3294L51.1975 46.2259L52.7245 51.9482C53.2634 54.1835 51.9161 56.3294 49.7604 56.9553Z" fill="#07293B"/>
</svg>
