<svg width="33" height="24" viewBox="0 0 33 24" fill="none" xmlns="http://www.w3.org/2000/svg">
<path d="M32.801 21.5255C32.5302 21.263 32.0983 21.263 31.8276 21.5255L31.0412 22.2878C28.9655 19.3509 20.4889 7.37804 17.3626 3.32879L19.1159 1.0667C19.3415 0.773004 19.2835 0.35433 18.9805 0.13562C18.6776 -0.0830895 18.2457 -0.0268498 18.0201 0.266846L16.4988 2.22274L14.984 0.266846C14.7583 -0.0268498 14.3265 -0.0893383 14.0235 0.13562C13.7205 0.35433 13.6561 0.773004 13.8881 1.0667L15.6415 3.32879C12.5151 7.37804 4.03848 19.3509 1.96284 22.2878L1.17641 21.5255C0.905677 21.263 0.473788 21.263 0.203052 21.5255C-0.067684 21.7879 -0.067684 22.2066 0.203052 22.469L1.57607 23.8C1.60186 23.825 1.71789 23.8938 1.75012 23.9125C1.84681 23.9625 1.95639 24 2.06597 24H30.9445C31.0541 24 31.1572 23.9688 31.2604 23.9125C31.2926 23.9 31.4022 23.825 31.4344 23.8L32.8074 22.469C33.0653 22.2066 33.0653 21.7817 32.801 21.5255ZM8.53786 22.6627C12.3475 19.9132 15.2418 13.4394 16.4988 8.21539C17.7558 13.4457 20.6501 19.9195 24.4597 22.6627H8.53786Z" fill="white"/>
</svg>
