<svg width="61" height="64" viewBox="0 0 61 64" fill="none" xmlns="http://www.w3.org/2000/svg">
<path d="M36.5952 21.8096C42.2124 29.3097 40.747 39.9893 33.176 45.6144C25.6865 51.2395 15.022 49.6906 9.40481 42.1904C3.78764 34.6903 5.25299 24.0107 12.824 18.3856C20.3135 12.7605 30.978 14.3094 36.5952 21.8096Z" fill="#FFE177"/>
<path d="M6.21374 18.9672C4.69716 20.0996 2.61185 19.8165 1.47441 18.3067C0.336966 16.7968 0.621326 14.7208 2.13791 13.5884C3.6545 12.4561 5.73981 12.7392 6.87725 14.249C8.01469 15.7588 7.73033 17.8348 6.21374 18.9672ZM3.46493 15.287C2.89621 15.6645 2.80142 16.4194 3.27535 16.9856C3.6545 17.5517 4.50758 17.6461 4.98152 17.2686C5.55024 16.8912 5.64502 16.0419 5.26588 15.5701C4.79194 15.0039 4.03365 14.9095 3.46493 15.287Z" fill="#07293B"/>
<path d="M8.10948 59.4495C7.91991 59.6383 7.63555 59.7326 7.35119 59.6383C6.78247 59.5439 6.40332 58.9777 6.40332 58.4115L7.16161 53.1271C7.2564 52.5609 7.82512 52.1835 8.39384 52.1835C8.96256 52.2778 9.34171 52.844 9.34171 53.4102L8.58342 58.6946C8.48863 59.0721 8.29906 59.2608 8.10948 59.4495Z" fill="#07293B"/>
<path d="M11.1426 57.1848C10.9531 57.3735 10.6687 57.4679 10.3843 57.3735L5.07629 56.6186C4.50756 56.5243 4.12842 55.9581 4.12842 55.3919C4.2232 54.8257 4.79192 54.4482 5.36065 54.4482L10.6687 55.2032C11.2374 55.2975 11.6166 55.8637 11.6166 56.4299C11.5218 56.8073 11.3322 56.9961 11.1426 57.1848Z" fill="#07293B"/>
<path d="M58.7255 51.7117C57.2089 52.844 55.1236 52.5609 53.9861 51.0511C52.8487 49.5413 53.133 47.4653 54.6496 46.3329C56.1662 45.2005 58.2515 45.4836 59.389 46.9934C60.5264 48.5033 60.2421 50.6736 58.7255 51.7117ZM55.9766 48.1258C55.4079 48.5033 55.3131 49.3525 55.6923 49.8244C56.0714 50.3906 56.9245 50.4849 57.3985 50.1075C57.9672 49.73 58.062 48.8807 57.6828 48.4089C57.3037 47.7483 56.5454 47.654 55.9766 48.1258Z" fill="#07293B"/>
<path d="M2.99078 60.4875C3.5595 61.2425 3.36992 62.2805 2.70642 62.7523C1.94812 63.4128 0.90547 63.2241 0.336749 62.4692C-0.231971 61.7143 -0.0423975 60.6763 0.62111 60.2044C1.47419 59.6383 2.51684 59.827 2.99078 60.4875Z" fill="#07293B"/>
<path d="M14.1758 15.287C14.9341 16.3251 14.3654 17.9292 12.6592 17.9292C11.0478 17.4574 10.8583 15.6645 11.9009 14.9096C12.5644 14.3434 13.6071 14.5321 14.1758 15.287Z" fill="#07293B"/>
<path d="M53.986 28.0262C53.7964 28.2149 53.512 28.3093 53.2277 28.2149C52.6589 28.1205 52.2798 27.5544 52.2798 26.9882L53.0381 21.7038C53.1329 21.1376 53.7016 20.7601 54.2703 20.7601C54.839 20.8545 55.2182 21.4207 55.2182 21.9869L54.4599 27.3656C54.3651 27.6487 54.2703 27.9318 53.986 28.0262Z" fill="#07293B"/>
<path d="M57.0191 25.7615C56.8295 25.9502 56.5452 26.0446 56.2608 25.9502L50.9527 25.1953C50.384 25.1009 50.0049 24.5347 50.0049 23.9685C50.0997 23.4024 50.6684 23.0249 51.2371 23.0249L56.5452 23.7798C57.1139 23.8742 57.493 24.4404 57.493 25.0066C57.3982 25.384 57.3035 25.6671 57.0191 25.7615Z" fill="#07293B"/>
<path d="M11.4269 7.17169C11.2373 7.36042 10.9529 7.45478 10.6686 7.36042C10.0999 7.26605 9.7207 6.69987 9.7207 6.13368L10.479 0.943643C10.5738 0.377457 11.1425 0 11.7112 0C12.2799 0.0943643 12.6591 0.66055 12.6591 1.22674L11.9008 6.51114C11.806 6.79423 11.6164 6.98296 11.4269 7.17169Z" fill="#07293B"/>
<path d="M14.46 4.90698C14.2704 5.0957 13.9861 5.19007 13.7017 5.0957L8.39367 4.34079C7.82495 4.24643 7.4458 3.68024 7.4458 3.11405C7.54059 2.54787 8.10931 2.17041 8.67803 2.17041L13.9861 2.92532C14.5548 3.01969 14.934 3.58588 14.934 4.15206C14.8392 4.52952 14.6496 4.71825 14.46 4.90698Z" fill="#07293B"/>
<path d="M19.46 45.7522C19.739 45.7557 19.904 45.446 19.9841 45.1785C20.2802 44.1898 20.3031 43.121 20.0501 42.1205L19.6404 42.1438C19.7852 42.7567 19.3412 43.4449 18.723 43.5659C18.6343 44.1598 18.7198 44.7667 18.969 45.3131C19.0658 45.5239 19.2277 45.7496 19.46 45.7522V45.7522ZM39.8729 43.198C39.502 43.1087 39.5196 42.5688 39.2921 42.2626C38.9406 41.7891 38.197 42.036 37.6826 42.3237C36.8906 42.7664 36.0669 43.1769 35.2969 43.6574C34.3905 44.2228 34.3008 45.3439 34.1587 46.2943C34.0878 46.7686 33.8348 47.1624 34.2678 47.4629C35.0866 48.0314 36.2399 46.6868 37.0653 46.5645C38.164 46.4017 38.2287 47.9509 38.901 48.5313C39.051 48.6589 39.2269 48.7524 39.4166 48.8054C39.6063 48.8584 39.8052 48.8697 39.9997 48.8384C40.1936 48.8042 40.3778 48.7284 40.5396 48.6161C40.7014 48.5038 40.837 48.3578 40.9369 48.1881C41.0935 47.5729 41.361 47.1862 41.7236 46.663C41.9858 46.2846 42.2608 45.8561 42.1913 45.4011C42.1301 45.0011 41.8195 44.6949 41.5819 44.3671C41.2993 43.9715 41.1091 43.5175 41.0251 43.0386C40.9411 42.5597 40.9655 42.0681 41.0966 41.5999C40.7226 41.5977 40.5765 42.0756 40.5202 42.4456C40.4634 42.8152 40.2368 43.2856 39.8729 43.198V43.198ZM30.1129 37.6342L30.053 37.8261C30.405 37.9801 30.6026 38.3475 30.7953 38.6797C30.9871 39.0101 31.1992 39.33 31.4535 39.6151C31.744 39.9391 32.0838 40.2153 32.4603 40.4335C33.126 40.8198 33.881 41.0183 34.6259 41.2123C35.1399 41.3461 35.6591 41.4807 36.1897 41.5005C36.7203 41.5203 37.2717 41.4156 37.7046 41.108C36.5945 41.0499 35.4619 41.0891 34.3949 40.7763C33.4316 40.4917 32.5715 39.934 31.9186 39.1707C31.6559 38.8623 31.4293 38.5226 31.1473 38.2309C30.8657 37.9391 30.5141 37.6923 30.1129 37.6342V37.6342Z" fill="#07293B"/>
<path d="M34.7941 40.0186C34.8882 40.0243 34.9868 40.023 35.0704 39.9799C35.2693 39.8773 35.2899 39.6085 35.3146 39.3863C35.355 39.0194 35.4752 38.6657 35.6666 38.3501C35.7585 38.1987 35.8672 38.0549 35.9253 37.8877C35.9834 37.7205 35.9803 37.5176 35.8628 37.3852C35.7282 37.2329 35.4866 37.2228 35.2979 37.2985C35.1091 37.3737 34.9569 37.5167 34.7971 37.6417C34.5446 37.8393 34.2621 37.9994 34.0271 38.2181C33.7922 38.4363 33.603 38.7333 33.6127 39.0541C33.621 39.3331 33.7843 39.594 34.0095 39.7594C34.2344 39.9244 34.5151 40.0014 34.7941 40.0186V40.0186ZM38.6247 39.1975C38.5574 39.4954 38.8143 39.7709 39.0836 39.9152C39.3529 40.06 39.6657 40.1471 39.8695 40.3745C40.0301 40.5541 40.0987 40.7952 40.2166 41.0051C40.3341 41.2149 40.544 41.4116 40.7829 41.3808C40.9994 41.3531 41.1675 41.1459 41.3853 41.1423C41.6259 41.1384 41.7892 41.3729 41.9388 41.5621C42.0879 41.7509 42.3546 41.9273 42.5508 41.7874C42.7079 41.6756 42.6912 41.4213 42.5684 41.273C42.4457 41.1247 42.2538 41.0557 42.0717 40.9932C42.0554 40.9197 42.0586 40.8432 42.0811 40.7713C42.1036 40.6994 42.1445 40.6347 42.1997 40.5835L40.577 39.623C40.3561 39.4923 40.0939 39.3577 39.8558 39.4527C39.6789 39.5236 39.5364 39.715 39.3481 39.6859C39.1914 39.6617 39.1052 39.4976 39.0172 39.3656C38.9292 39.2336 38.7567 39.11 38.6247 39.1975V39.1975ZM38.8654 28.8025C38.7519 28.5275 38.5376 28.2446 38.6401 27.9657C38.6612 27.908 38.696 27.8521 38.6911 27.791C38.6823 27.6854 38.5675 27.6295 38.4755 27.5771C38.0963 27.3615 37.9167 26.9237 37.7007 26.5449C37.4847 26.1661 37.1278 25.7837 36.694 25.8308L37.2211 26.5172C37.5977 27.0078 37.9819 27.5125 38.1601 28.1043C38.3383 28.6965 38.2696 29.4036 37.8287 29.8374C37.6963 29.9677 37.537 30.068 37.398 30.1912C37.2589 30.3144 37.1357 30.4715 37.112 30.6558C37.0882 30.8402 37.1943 31.0501 37.376 31.0897C37.4948 31.1156 37.6167 31.0681 37.7262 31.0149C38.1376 30.8151 38.5121 30.5172 38.7417 30.1212C38.9714 29.7252 39.0401 29.2254 38.8654 28.8025V28.8025ZM38.8126 49.4535C38.7734 49.5085 38.7659 49.5793 38.7598 49.6467L38.6925 50.381C38.7981 50.4351 38.9155 50.337 38.9899 50.2446C39.2036 49.9792 39.3813 49.6867 39.5183 49.3748C39.4026 49.4192 39.2741 49.3822 39.1523 49.3633C39.0308 49.3439 38.8843 49.3528 38.8126 49.4535V49.4535Z" fill="#07293B"/>
<path d="M28.9998 18.1475C17.4973 18.1475 8.17285 27.472 8.17285 38.9745C8.17285 50.477 17.4973 59.8014 28.9998 59.8014C40.5023 59.8014 49.8268 50.477 49.8268 38.9745C49.8268 27.472 40.5023 18.1475 28.9998 18.1475ZM35.877 21.1958C35.463 21.3749 35.0529 21.5879 34.6485 21.7621C33.1508 22.4072 31.4885 22.5304 29.8618 22.6452L27.3133 22.8252C27.2992 23.09 27.0709 23.3268 26.8069 23.3505C26.5429 23.3747 26.2758 23.1829 26.2142 22.925C25.4011 23.5195 24.309 23.7126 23.341 23.4341C23.3423 23.072 23.8527 22.8366 24.129 23.0711C24.2791 22.577 23.8672 22.0538 23.3766 21.8919C22.886 21.73 22.3523 21.8294 21.8459 21.9302C21.2602 22.0468 20.6614 22.1682 20.1475 22.4723C19.6335 22.7768 19.2116 23.3043 19.1988 23.9014L22.428 22.5048L20.7186 24.0198C20.3732 24.3256 19.9781 24.6507 19.5169 24.6309C19.0558 24.6111 18.6515 24.0079 18.9744 23.6783C18.3606 24.113 17.5893 24.187 16.8351 24.3053C20.1382 21.5602 24.3794 19.9075 28.9998 19.9075C31.4242 19.9075 33.7421 20.3669 35.877 21.1958ZM14.7887 26.28C15.2819 26.2466 15.7919 26.4477 16.1109 26.8278C16.4959 27.2863 16.5817 27.9745 16.3212 28.5139L17.3398 28.411L17.4582 28.9535L18.4429 29.0168C18.3989 29.6984 17.9272 30.3333 17.2875 30.5731C16.6477 30.8125 15.8751 30.6431 15.3941 30.1582C15.0527 30.3496 14.6642 29.9184 14.6435 29.5272C14.6228 29.1361 14.7852 28.7427 14.7064 28.359C14.6145 27.9129 14.2044 27.6273 13.749 27.5437C14.0775 27.1079 14.4244 26.6863 14.7887 26.28V26.28ZM32.7909 57.6617C32.8613 57.4782 32.8846 57.2816 32.8353 57.0884C33.162 57.1332 33.4945 57.1078 33.8106 57.0139C34.1267 56.9199 34.4191 56.7596 34.6683 56.5437C34.9429 55.8744 34.557 55.0807 33.9714 54.6565C33.3857 54.2324 32.6479 54.0902 31.9368 53.9591C30.3735 53.6709 28.7891 53.8465 27.2253 54.03C25.9343 54.1813 24.4757 54.4603 23.5641 55.4754C23.1852 55.8969 22.9388 56.4596 22.8702 57.0246C15.3554 54.4656 9.93285 47.3437 9.93285 38.9745C9.93285 38.0668 10.0011 37.1749 10.1243 36.3002C10.3557 36.6099 10.7042 36.8343 11.0857 36.8238L12.2618 41.7425C12.7493 43.781 13.2628 45.8776 14.493 47.5747C14.7522 47.9324 15.069 48.2866 15.4962 48.3993C16.191 48.5823 16.9033 48.0292 17.1766 47.3644C17.4498 46.6996 17.4049 45.9546 17.4032 45.2357C17.4005 42.0072 18.3382 38.8478 20.1017 36.1435C19.3964 36.393 18.4715 36.5848 18.017 35.9908C17.8133 35.7246 17.7759 35.3709 17.7459 35.0374L17.4344 31.5719C18.0236 32.912 18.3711 34.3458 18.4609 35.8069C19.5839 35.6453 20.6423 35.1831 21.5242 34.4693C21.7785 34.263 22.0342 33.999 22.0417 33.6716C22.0628 32.7661 20.4053 32.7265 20.2152 31.8408C20.2478 31.9934 22.9731 32.8286 23.3089 33.0248C24.2355 33.5664 24.5127 34.7148 24.9729 35.6538C25.1397 35.9939 25.1815 36.3952 25.394 36.7102C25.5476 36.9373 25.8133 37.1102 26.0848 37.0732C26.6841 36.9914 27.0841 35.5187 27.3437 35.0233C27.8497 34.0566 28.4243 33.4415 29.1877 34.4258C29.8354 35.2613 30.7185 36.2218 31.1563 37.1868C31.503 37.9506 31.6103 38.9635 32.7574 38.9186C32.8806 38.9138 32.0644 37.6844 31.998 37.6012C31.6042 37.1089 31.3802 36.6196 31.1167 36.0221C31.4497 36.4476 31.9263 36.7934 32.4653 36.8352C33.0038 36.8766 33.5868 36.5395 33.7008 36.0115C33.8147 35.4835 33.2982 34.8864 32.7755 35.0233C32.6408 34.7228 32.8978 34.3743 33.2023 34.2489C33.5067 34.1239 33.8491 34.1393 34.1707 34.0698C35.3327 33.8181 35.9734 32.2566 35.3226 31.2613C34.9882 30.75 34.3823 30.1331 34.7748 29.665C35.0054 29.39 35.4726 29.4384 35.7371 29.6808C36.0015 29.9232 36.1049 30.2933 36.1586 30.6484L36.4913 30.57C36.7975 29.0886 37.0681 27.4663 36.3632 26.1274C36.1643 25.7494 35.8884 25.3006 36.1098 24.9354C36.236 24.7273 36.4851 24.634 36.6703 24.476C36.8556 24.3181 36.9603 23.9916 36.7614 23.8512L37.3902 23.8794C37.3431 24.9152 38.1267 25.9267 39.1414 26.141C38.6514 24.8646 38.2853 23.5441 38.048 22.1977C44.0082 25.4251 48.0659 31.7356 48.0659 38.9762C48.0668 48.1903 41.4945 55.8986 32.7909 57.6617V57.6617Z" fill="#07293B"/>
<path d="M44.1397 49.4988L40.7632 52.2849C42.3045 52.1349 43.7002 50.9834 44.1397 49.4988Z" fill="#07293B"/>
</svg>
