<svg width="67" height="60" viewBox="0 0 67 60" fill="none" xmlns="http://www.w3.org/2000/svg">
<path d="M40.3834 28.8037C40.4752 39.1105 32.2149 47.4847 21.9355 47.5767C11.656 47.5767 3.30396 39.2945 3.21218 29.0798C3.1204 18.773 11.3807 10.3988 21.6601 10.3068C31.9396 10.2148 40.3834 18.497 40.3834 28.8037Z" fill="#FFE177"/>
<path d="M3.21233 19.6013C1.46849 19.6013 0 18.2209 0 16.4724C0 14.724 1.37671 13.2516 3.12055 13.2516C4.86438 13.2516 6.33288 14.632 6.33288 16.3804C6.33288 18.2209 4.95616 19.6013 3.21233 19.6013ZM3.12055 15.2761C2.47808 15.2761 1.9274 15.8283 1.9274 16.4724C1.9274 17.1166 2.47808 17.6688 3.12055 17.6688C3.76301 17.6688 4.3137 17.1166 4.3137 16.4724C4.3137 15.8283 3.76301 15.2761 3.12055 15.2761Z" fill="#07293B"/>
<path d="M12.3904 5.61351C12.1151 5.61351 11.8398 5.52149 11.6562 5.33744C11.2891 4.96934 11.2891 4.32517 11.6562 3.95707L15.1439 0.368115C15.511 1.64807e-05 16.1535 1.64807e-05 16.5206 0.368115C16.8877 0.736213 16.8877 1.38038 16.5206 1.74848L13.0329 5.33744C12.8494 5.52149 12.6658 5.61351 12.3904 5.61351Z" fill="#07293B"/>
<path d="M15.9699 5.61353C15.6946 5.61353 15.4192 5.52151 15.2357 5.33746L11.6562 1.84052C11.2891 1.47243 11.2891 0.828254 11.6562 0.460156C12.0233 0.0920575 12.6658 0.0920575 13.0329 0.460156L16.6124 3.95709C16.9795 4.32519 16.9795 4.96936 16.6124 5.33746C16.4288 5.42948 16.1535 5.61353 15.9699 5.61353Z" fill="#07293B"/>
<path d="M11.3808 48.773C11.3808 49.6013 10.7383 50.3375 9.82053 50.3375C8.9945 50.3375 8.26025 49.6013 8.26025 48.773C8.26025 47.9448 8.90272 47.2086 9.82053 47.2086C10.6466 47.2086 11.3808 47.8528 11.3808 48.773Z" fill="#07293B"/>
<path d="M61.5849 33.2209C61.5849 34.0491 60.9424 34.7853 60.0246 34.7853C59.1986 34.7853 58.4644 34.1412 58.4644 33.2209C58.4644 32.3927 59.1068 31.6565 60.0246 31.6565C60.8507 31.7485 61.5849 32.3927 61.5849 33.2209Z" fill="#07293B"/>
<path d="M31.9397 8.65036C31.9397 9.84668 30.563 10.7669 29.2781 9.84668C28.2685 8.55833 29.1863 7.17797 30.3794 7.17797C31.2055 7.08594 31.9397 7.82214 31.9397 8.65036Z" fill="#07293B"/>
<path d="M62.5027 24.7546C62.2274 24.7546 61.9521 24.6626 61.7685 24.4786C61.4014 24.1105 61.4014 23.4663 61.7685 23.0982L65.2562 19.5092C65.6233 19.1411 66.2658 19.1411 66.6329 19.5092C67 19.8773 67 20.5215 66.6329 20.8896L63.1452 24.4786C63.0534 24.6626 62.7781 24.7546 62.5027 24.7546Z" fill="#07293B"/>
<path d="M66.0822 24.6626C65.8069 24.6626 65.5315 24.5706 65.348 24.3865L61.7685 20.8896C61.4014 20.5215 61.4014 19.8773 61.7685 19.5092C62.1356 19.1411 62.7781 19.1411 63.1452 19.5092L66.7247 23.0062C67.0918 23.3743 67.0918 24.0184 66.7247 24.3865C66.5411 24.5706 66.2658 24.6626 66.0822 24.6626Z" fill="#07293B"/>
<path d="M25.5428 57.2436L31.0059 55.3438L30.5246 53.9526L25.0616 55.8525L25.5428 57.2436Z" fill="#07293B"/>
<path d="M36.4633 53.5131L60.3965 45.1899L59.9153 43.7988L35.9821 52.122L36.4633 53.5131Z" fill="#07293B"/>
<path d="M21.4763 50.2454L20.1914 50.7055C19.916 49.9693 19.916 49.1411 20.2832 48.4969C20.6503 47.7607 21.201 47.3006 21.9352 47.0245L22.3941 48.4049C22.027 48.4969 21.6599 48.773 21.5681 49.1411C21.3845 49.4172 21.3845 49.8773 21.4763 50.2454Z" fill="#07293B"/>
<path d="M20.3752 46.7484L18.9985 47.2086C18.7232 46.4724 18.7232 45.6442 19.0903 45C19.4574 44.2638 20.0081 43.8037 20.7423 43.5276L21.2013 44.908C20.8341 45 20.467 45.2761 20.3752 45.6442C20.1917 46.0122 20.1917 46.3803 20.3752 46.7484Z" fill="#07293B"/>
<path d="M14.134 28.9877L12.7573 29.4478C12.482 28.7116 12.482 27.8834 12.8491 27.2392C13.2162 26.503 13.7669 26.0429 14.5011 25.7668L14.96 27.1472C14.5929 27.2392 14.2258 27.5153 14.134 27.8834C14.0422 28.1595 14.0422 28.6196 14.134 28.9877Z" fill="#07293B"/>
<path d="M47.0834 6.71779L14.2258 18.1288C11.5642 19.0491 10.1875 21.9018 11.1053 24.5706L22.4861 57.5153C23.1286 59.4479 25.2395 60.3681 27.0752 59.7239L61.3094 47.8528C61.6765 47.7607 61.8601 47.3006 61.7683 46.9325L48.0012 7.17791C47.9094 6.80981 47.4505 6.62576 47.0834 6.71779ZM21.4765 50.2454C21.293 49.8773 21.293 49.5092 21.4765 49.1411C21.6601 48.773 21.9354 48.4969 22.3026 48.4049L21.8436 47.0245C21.3847 47.2086 20.9258 47.4847 20.5587 47.8528L20.1916 46.8405C20.008 46.4724 20.008 46.1043 20.1916 45.7362C20.3752 45.3681 20.6505 45.092 21.0176 45L20.5587 43.6196C20.0998 43.8037 19.6409 44.0798 19.2738 44.4479L13.9505 28.9877C13.7669 28.6196 13.7669 28.2515 13.9505 27.8834C14.1341 27.5153 14.4094 27.2393 14.7765 27.1472L14.593 25.7669C14.1341 25.9509 13.6752 26.227 13.308 26.5951L12.482 24.2025C11.9313 22.546 12.5738 20.7975 14.0423 19.8773L25.4231 52.7301L24.7806 52.9141C24.0464 53.1902 23.4039 53.6503 22.945 54.2945L21.4765 50.2454ZM59.9327 46.1043C60.0245 46.4724 59.8409 46.8405 59.4738 46.9325L26.6163 58.4356C25.5149 58.8037 24.2299 58.2515 23.8628 57.0552C23.771 56.8712 23.771 56.6871 23.771 56.5951C23.6793 55.5828 24.2299 54.6626 25.2395 54.2945L29.3697 52.8221L29.8286 54.2025L25.056 55.8589L25.5149 57.2393L30.2875 55.5828L30.5628 56.227C30.6546 56.5031 30.8382 56.6871 31.1135 56.6871C31.3889 56.7791 31.5724 56.6871 31.756 56.5031L33.7752 54.4785L36.6204 54.8466C36.8957 54.8466 37.0793 54.7546 37.2628 54.5706C37.4464 54.3865 37.4464 54.1104 37.3546 53.8344L37.0793 53.1902L59.6573 45.3681L59.9327 46.1043ZM31.4806 54.7546L30.6546 52.454L34.7847 50.9816L35.6108 53.2822L33.5916 53.0061C33.408 53.0061 33.1327 53.0982 32.9491 53.1902L31.4806 54.7546ZM59.1984 43.9877L36.6204 51.8098L36.1615 50.4294L58.0053 42.7914C58.3724 42.6994 58.8313 42.8834 58.9231 43.2515L59.1984 43.9877ZM57.271 41.5951L26.7998 52.1779L15.419 19.3252L46.1656 8.55828C46.6245 8.37423 47.0834 8.6503 47.1752 9.0184L58.0053 40.2147C58.0971 40.8589 57.8217 41.411 57.271 41.5951Z" fill="#07293B"/>
</svg>
