<svg width="86" height="74" viewBox="0 0 86 74" fill="none" xmlns="http://www.w3.org/2000/svg">
<g clip-path="url(#clip0_45_3128)">
<path d="M52.0198 36.3177C51.9199 47.4258 42.8709 56.3972 31.7628 56.2973C20.6547 56.1973 11.6833 47.1483 11.7833 36.0402C11.8832 24.9321 20.9322 15.9607 32.0403 16.0607C43.1727 16.0636 52.1198 25.2096 52.0198 36.3177Z" fill="#FFE177"/>
<path d="M11.8832 25.7567C10.0157 25.8047 8.46392 24.1793 8.51292 22.3361C8.56191 20.4928 10.0903 18.9167 11.9336 18.9657C13.7768 19.0147 15.3529 20.5431 15.3039 22.3864C15.3519 24.2539 13.8235 25.83 11.8832 25.7567ZM11.9087 21.1243C11.1811 21.1483 10.6474 21.6333 10.6715 22.3609C10.6955 23.0885 11.1805 23.6222 11.9081 23.5981C12.6357 23.5741 13.1694 23.0892 13.1453 22.3615C13.2183 21.6582 12.6364 21.1002 11.9087 21.1243Z" fill="#07293B"/>
<path d="M22.1219 10.7951C21.8066 10.8192 21.5398 10.6494 21.3701 10.5038C20.8852 9.97011 20.9338 9.36378 21.3463 8.95158L25.1793 5.16905C25.5918 4.75685 26.3194 4.73279 26.7316 5.14521C27.1438 5.55763 27.1678 6.28524 26.7554 6.69744L22.8253 10.4557C22.6555 10.7224 22.3402 10.7466 22.1219 10.7951Z" fill="#07293B"/>
<path d="M25.9297 10.8203C25.6144 10.8445 25.3477 10.6747 25.178 10.5291L21.3227 6.57473C20.9105 6.16231 20.8864 5.43469 21.2989 5.02249C21.7113 4.61029 22.4389 4.58623 22.8511 4.99865L26.6336 8.83172C27.0458 9.24414 27.0699 9.97176 26.6575 10.384C26.4633 10.7477 26.245 10.7962 25.9297 10.8203Z" fill="#07293B"/>
<path d="M16.5801 56.0022C16.5556 56.9238 15.852 57.6755 14.9304 57.651C14.0088 57.6265 13.2571 56.923 13.2816 56.0013C13.3061 55.0797 14.0096 54.328 14.9313 54.3525C15.8772 54.28 16.6046 55.0806 16.5801 56.0022Z" fill="#07293B"/>
<path d="M43.1734 14.4145C43.1488 15.7484 41.6691 16.7182 40.2869 15.6506C39.1959 14.2436 40.1906 12.7402 41.5246 12.7648C42.4705 12.6923 43.1979 13.4929 43.1734 14.4145Z" fill="#07293B"/>
<path d="M71.3927 57.3508C71.0774 57.375 70.8106 57.2051 70.6409 57.0595C70.2287 56.6471 70.2046 55.9195 70.6171 55.5073L74.4501 51.7248C74.8625 51.3126 75.5902 51.2885 76.0024 51.7009C76.4146 52.1134 76.4386 52.841 76.0262 53.2532L72.1931 57.0357C72.0233 57.3025 71.708 57.3266 71.3927 57.3508Z" fill="#07293B"/>
<path d="M75.2974 57.4003C74.9821 57.4245 74.7154 57.2547 74.5457 57.1091L70.7631 53.276C70.3509 52.8636 70.3269 52.136 70.7393 51.7238C71.1517 51.3116 71.8793 51.2875 72.2915 51.6999L76.074 55.533C76.4863 55.9454 76.5103 56.673 76.0979 57.0852C75.831 57.3277 75.5157 57.3519 75.2974 57.4003Z" fill="#07293B"/>
<path d="M61.5335 13.5462C55.7856 13.0353 50.6427 17.1085 49.7438 22.7594L26.9456 22.4137C24.787 22.3889 23.0161 24.1104 22.9912 26.269L22.5706 57.6045C22.5457 59.763 24.2673 61.534 26.4258 61.5589L57.7613 61.9795C59.9199 62.0043 61.6908 60.2828 61.7157 58.1242L61.7163 55.6504C62.6138 55.3596 63.2446 54.4866 63.2934 53.468L63.5154 39.401C63.5155 38.9887 63.2003 38.6005 62.788 38.6004L62.8132 35.2049C67.8097 34.1876 71.4974 29.7502 71.5473 24.6084C71.6458 18.8604 67.2815 14.057 61.5335 13.5462ZM27.2752 59.8128L28.8274 59.789L27.2752 59.8128ZM55.3849 60.3539L29.0941 59.9588L27.1296 59.9826L26.402 60.0066C25.068 59.982 24.0982 58.9146 24.0985 57.6777L24.5192 26.3422C24.5438 25.0082 25.6112 24.0384 26.8481 24.0387L49.5494 24.36C49.4995 29.5018 53.0151 33.9896 57.9868 35.1309L57.9616 38.5264C57.5493 38.5263 57.1611 38.8415 57.161 39.2538L56.939 53.3208C56.9144 54.6547 58.0055 55.6494 59.2425 55.6497L60.0671 55.6499L59.9937 58.0025C59.9691 59.3365 58.9017 60.3063 57.6647 60.306L56.9371 60.33L55.3849 60.3539ZM61.7654 53.3948C61.7653 53.8071 61.3772 54.1223 60.9649 54.1222L59.4126 54.1461C59.0003 54.1459 58.6851 53.7578 58.6853 53.3455L58.9071 40.1031L61.9873 40.1524L61.7654 53.3948ZM59.6108 38.5268L59.6602 35.4466L61.2124 35.4228L61.1631 38.503L59.6108 38.5268ZM69.3879 27.8821C68.0288 31.253 64.8509 33.6532 61.1886 33.8705C60.9703 33.919 60.6792 33.8462 60.4609 33.8946C55.3192 33.8447 51.1245 29.5992 51.1986 24.3605C51.1502 24.1422 51.1987 23.9482 51.2716 23.6572C51.5636 20.0192 53.9898 16.9154 57.5069 15.6309C60.9997 14.4434 64.8073 15.2933 67.3532 17.8891C69.8749 20.5819 70.6742 24.3899 69.3879 27.8821Z" fill="#07293B" stroke="#07293B" stroke-width="0.5669" stroke-miterlimit="10"/>
<path d="M60.7564 16.6504C57.5792 16.5768 54.741 18.4435 53.5033 21.3294C52.2656 24.2152 52.8711 27.5624 55.0775 29.8671C57.284 32.1717 60.6308 32.8032 63.59 31.6883C66.5493 30.5735 68.5146 27.6636 68.4669 24.5591C68.5166 20.242 65.0735 16.7 60.7564 16.6504ZM60.5344 30.7174C57.9635 30.6924 55.7811 29.1154 54.8116 26.811C53.8663 24.4097 54.4248 21.7662 56.2928 20.0689C58.0881 18.2504 60.7803 17.7903 63.1084 18.7853C65.4365 19.7803 66.9153 22.1091 66.9147 24.5829C66.8895 27.9784 64.0269 30.7668 60.5344 30.7174Z" fill="#07293B" stroke="#07293B" stroke-width="0.5669" stroke-miterlimit="10"/>
<path d="M60.7074 19.7305C58.1365 19.7056 55.9774 21.7423 55.9524 24.3132C55.9523 24.7255 56.2675 25.1136 56.6798 25.1137C57.0922 25.1139 57.4803 24.7987 57.4804 24.3864C57.5051 22.6401 58.888 21.2338 60.6342 21.2585C61.0465 21.2586 61.4347 20.9434 61.4348 20.5311C61.4349 20.1188 61.1197 19.7306 60.7074 19.7305Z" fill="#07293B" stroke="#07293B" stroke-width="0.5669" stroke-miterlimit="10"/>
<path d="M47.1182 46.8425C49.2287 45.4121 50.636 43.0841 50.952 40.5861C51.1709 38.0638 50.2742 35.4684 48.5527 33.6974C46.9039 32.0478 44.7456 31.1983 42.3687 31.2219C37.906 31.342 34.2428 34.8578 33.9506 39.3204C33.8285 42.2793 35.186 45.0931 37.5624 46.7187C31.6197 48.6331 27.4466 54.1861 27.3237 60.4435L28.8759 60.4196C29.0232 54.0652 33.6327 48.8277 39.8904 47.7137C40.2057 47.6895 40.4969 47.35 40.5697 47.059C40.5456 46.7437 40.4244 46.4041 40.0606 46.21C37.2232 45.1906 35.3565 42.3524 35.5998 39.3208C35.7948 35.6586 38.7788 32.7975 42.4168 32.6772C45.8366 32.6053 48.8191 35.1042 49.3276 38.4271C49.933 41.7742 47.9676 45.0965 44.693 46.2355C44.3535 46.3567 44.1593 46.7204 44.1835 47.0357C44.2077 47.351 44.4259 47.7149 44.8382 47.715C51.0225 48.9536 55.5079 54.5089 55.482 60.7905L57.0342 60.7667C57.0359 54.582 53.0841 48.9541 47.1182 46.8425Z" fill="#07293B" stroke="#07293B" stroke-width="0.5669" stroke-miterlimit="10"/>
</g>
<defs>
<clipPath id="clip0_45_3128">
<rect width="74.2" height="57" fill="white" transform="translate(14) rotate(14.0515)"/>
</clipPath>
</defs>
</svg>
