<svg width="380" height="286" viewBox="0 0 380 286" fill="none" xmlns="http://www.w3.org/2000/svg">
<path d="M109.862 175.125C144.375 175.125 172.353 138.608 172.353 93.5623C172.353 48.5167 144.375 12 109.862 12C75.3488 12 47.3706 48.5167 47.3706 93.5623C47.3706 138.608 75.3488 175.125 109.862 175.125Z" stroke="#07293B" stroke-width="24" stroke-linecap="round" stroke-linejoin="round"/>
<path d="M222.344 44.625H372.323" stroke="#07293B" stroke-width="15" stroke-linecap="round" stroke-linejoin="round"/>
<path d="M222.344 142.499H372.323" stroke="#07293B" stroke-width="15" stroke-linecap="round" stroke-linejoin="round"/>
<path d="M259.841 240.374H372.325" stroke="#07293B" stroke-width="15" stroke-linecap="round" stroke-linejoin="round"/>
<path d="M13 273C18.5067 244.929 31.015 220.049 48.5527 202.281C66.0905 184.513 87.6601 174.869 109.861 174.869C132.062 174.869 153.632 184.513 171.17 202.281C188.708 220.049 201.216 244.929 206.722 273" stroke="#07293B" stroke-width="24" stroke-linecap="round" stroke-linejoin="round"/>
</svg>
