<svg width="67" height="60" viewBox="0 0 67 60" fill="none" xmlns="http://www.w3.org/2000/svg">
<path d="M33.9994 25.3855C34.0759 33.9582 27.1873 40.9235 18.6148 41C10.0423 41 3.07717 34.1113 3.00063 25.6151C2.92409 17.0425 9.8127 10.0772 18.3852 10.0006C26.9577 9.92409 33.9994 16.8128 33.9994 25.3855Z" fill="#FFE177"/>
<path d="M3.21233 19.6013C1.46849 19.6013 0 18.2209 0 16.4724C0 14.724 1.37671 13.2516 3.12055 13.2516C4.86438 13.2516 6.33288 14.632 6.33288 16.3804C6.33288 18.2209 4.95616 19.6013 3.21233 19.6013ZM3.12055 15.2761C2.47808 15.2761 1.9274 15.8283 1.9274 16.4724C1.9274 17.1166 2.47808 17.6688 3.12055 17.6688C3.76301 17.6688 4.3137 17.1166 4.3137 16.4724C4.3137 15.8283 3.76301 15.2761 3.12055 15.2761Z" fill="#07293B"/>
<path d="M12.3904 5.61351C12.1151 5.61351 11.8398 5.52149 11.6562 5.33744C11.2891 4.96934 11.2891 4.32517 11.6562 3.95707L15.1439 0.368115C15.511 1.64802e-05 16.1535 1.64802e-05 16.5206 0.368115C16.8877 0.736213 16.8877 1.38038 16.5206 1.74848L13.0329 5.33744C12.8494 5.52149 12.6658 5.61351 12.3904 5.61351Z" fill="#07293B"/>
<path d="M15.9699 5.61353C15.6946 5.61353 15.4192 5.52151 15.2357 5.33746L11.6562 1.84052C11.2891 1.47243 11.2891 0.828254 11.6562 0.460156C12.0233 0.0920575 12.6658 0.0920575 13.0329 0.460156L16.6124 3.95709C16.9795 4.32519 16.9795 4.96936 16.6124 5.33746C16.4288 5.42948 16.1535 5.61353 15.9699 5.61353Z" fill="#07293B"/>
<path d="M5.3808 48.773C5.3808 49.6013 4.73834 50.3375 3.82053 50.3375C2.9945 50.3375 2.26025 49.6013 2.26025 48.773C2.26025 47.9448 2.90272 47.2086 3.82053 47.2086C4.64655 47.2086 5.3808 47.8528 5.3808 48.773Z" fill="#07293B"/>
<path d="M51.5849 33.2209C51.5849 34.0491 50.9424 34.7853 50.0246 34.7853C49.1986 34.7853 48.4644 34.1412 48.4644 33.2209C48.4644 32.3927 49.1068 31.6565 50.0246 31.6565C50.8507 31.7485 51.5849 32.3927 51.5849 33.2209Z" fill="#07293B"/>
<path d="M31.9397 8.65036C31.9397 9.84668 30.563 10.7669 29.2781 9.84668C28.2685 8.55833 29.1863 7.17797 30.3794 7.17797C31.2055 7.08594 31.9397 7.82214 31.9397 8.65036Z" fill="#07293B"/>
<path d="M52.5027 24.7546C52.2274 24.7546 51.9521 24.6626 51.7685 24.4786C51.4014 24.1105 51.4014 23.4663 51.7685 23.0982L55.2562 19.5092C55.6233 19.1411 56.2658 19.1411 56.6329 19.5092C57 19.8773 57 20.5215 56.6329 20.8896L53.1452 24.4786C53.0534 24.6626 52.7781 24.7546 52.5027 24.7546Z" fill="#07293B"/>
<path d="M56.0822 24.6626C55.8069 24.6626 55.5315 24.5706 55.348 24.3865L51.7685 20.8896C51.4014 20.5215 51.4014 19.8773 51.7685 19.5092C52.1356 19.1411 52.7781 19.1411 53.1452 19.5092L56.7247 23.0062C57.0918 23.3743 57.0918 24.0184 56.7247 24.3865C56.5411 24.5706 56.2658 24.6626 56.0822 24.6626Z" fill="#07293B"/>
<g clip-path="url(#clip0_45_3162)">
<path d="M40.3611 15.2982C41.1022 15.4219 41.4209 16.4102 40.8791 16.9963L37.8509 20.1493L38.5681 24.6181C38.608 25.4259 37.9067 26.0446 37.2214 25.6751L33.5159 23.5696L29.7786 25.7009C29.0933 26.0704 28.3203 25.4517 28.4319 24.6525L29.1491 20.1751L26.1209 16.9963C25.5791 16.4102 25.8978 15.4219 26.6389 15.2982L30.8066 14.6502L32.6872 10.5443C33.0298 9.8034 34.002 9.83425 34.3128 10.5443L36.1934 14.6502L40.3611 15.2982V15.2982ZM38.6 32.0001C40.0105 32.0001 41.15 33.229 41.15 34.7501V51.2501C41.15 52.7712 40.0105 54.0001 38.6 54.0001H28.4C26.9895 54.0001 25.85 52.7712 25.85 51.2501V34.7501C25.85 33.229 26.9895 32.0001 28.4 32.0001H38.6ZM20.75 37.5001C22.1605 37.5001 23.3 38.729 23.3 40.2501V51.2501C23.3 52.7712 22.1605 54.0001 20.75 54.0001H10.55C9.14192 54.0001 8 52.7712 8 51.2501V40.2501C8 38.729 9.14192 37.5001 10.55 37.5001H20.75ZM43.7 45.7501C43.7 44.229 44.8395 43.0001 46.25 43.0001H56.45C57.8605 43.0001 59 44.229 59 45.7501V51.2501C59 52.7712 57.8605 54.0001 56.45 54.0001H46.25C44.8395 54.0001 43.7 52.7712 43.7 51.2501V45.7501Z" fill="#07293B"/>
</g>
<defs>
<clipPath id="clip0_45_3162">
<rect width="51" height="44" fill="white" transform="translate(8 10)"/>
</clipPath>
</defs>
</svg>
